<svg width="30" height="28" viewBox="0 0 30 28" fill="none" xmlns="http://www.w3.org/2000/svg">
<path fill-rule="evenodd" clip-rule="evenodd" d="M24.6412 19.8744C24.8477 20.0623 25.0211 20.22 25.148 20.373C25.3588 20.554 25.5 20.812 25.5 21.113C25.5 21.655 25.0625 22.095 24.5226 22.095C24.5172 22.095 24.5124 22.0935 24.5077 22.092C24.503 22.0905 24.4983 22.089 24.4928 22.089C24.4882 22.089 24.4841 22.0906 24.4802 22.0921C24.4764 22.0936 24.4728 22.095 24.4689 22.095H15.8864H15.0641H5.48731C5.48632 22.095 5.48532 22.0947 5.48433 22.0945C5.48333 22.0942 5.48234 22.094 5.48135 22.094C5.48093 22.094 5.48052 22.0942 5.48004 22.0944C5.47936 22.0947 5.47853 22.095 5.47737 22.095C5.47177 22.095 5.46669 22.0934 5.46174 22.0919C5.45701 22.0904 5.45239 22.089 5.44754 22.089C5.3849 22.085 5.32525 22.073 5.26758 22.053C4.83209 21.954 4.5 21.581 4.5 21.113C4.5 20.936 4.55866 20.779 4.64019 20.636C4.74699 20.391 4.99049 20.1695 5.31661 19.8729C5.60681 19.6089 5.96242 19.2855 6.34537 18.833C7.51165 17.456 8.15892 15.168 8.15892 13.209C8.15892 13.209 8.15593 10.756 8.17284 9.939C8.23448 6.912 10.1624 4.413 12.9066 3.583H12.9453C13.1313 3.518 13.3242 3.463 13.524 3.416V2.99C13.524 2.167 14.1872 1.5 15.0055 1.5C15.8228 1.5 16.4859 2.167 16.4859 2.99V3.43C16.6639 3.475 16.8349 3.525 17.001 3.583H17.0497C19.7949 4.413 21.7218 6.912 21.7834 9.939C21.8003 10.756 21.7973 13.209 21.7973 13.209C21.7973 15.168 22.4456 17.456 23.6109 18.833C23.9954 19.2869 24.351 19.6104 24.6412 19.8744ZM14.9375 26.5002C13.5574 26.5002 12.4376 25.374 12.4376 23.986V23.3636H17.4373V23.986C17.4373 25.374 16.3175 26.5002 14.9375 26.5002Z" fill="#A3A3A3"/>
</svg>
