<svg width="24" height="24" viewBox="0 0 24 24" fill="none" xmlns="http://www.w3.org/2000/svg">
<path fill-rule="evenodd" clip-rule="evenodd" d="M12 4C11.245 4.00007 10.5096 4.24044 9.90031 4.6863C9.29102 5.13217 8.83946 5.76039 8.611 6.48L7.811 9H16.189L15.389 6.48C15.1605 5.76039 14.709 5.13217 14.0997 4.6863C13.4904 4.24044 12.755 4.00007 12 4ZM18.287 9L17.295 5.875C16.9383 4.75048 16.2328 3.76872 15.2808 3.07195C14.3288 2.37518 13.1797 1.99959 12 1.99959C10.8203 1.99959 9.67115 2.37518 8.71915 3.07195C7.76715 3.76872 7.0617 4.75048 6.705 5.875L5.713 9H3.348C3.03575 9.00001 2.72784 9.07313 2.44893 9.21351C2.17001 9.35388 1.92784 9.55761 1.7418 9.80839C1.55576 10.0592 1.43102 10.35 1.37757 10.6577C1.32412 10.9653 1.34345 11.2812 1.434 11.58L2.558 15.29L3.946 19.87C4.13269 20.4861 4.51259 21.0258 5.02959 21.4093C5.54659 21.7929 6.17326 22 6.817 22H17.183C17.8266 21.9998 18.453 21.7926 18.9698 21.409C19.4866 21.0255 19.8664 20.4859 20.053 19.87L21.442 15.29L22.566 11.58C22.6566 11.2812 22.6759 10.9653 22.6224 10.6577C22.569 10.35 22.4442 10.0592 22.2582 9.80839C22.0722 9.55761 21.83 9.35388 21.5511 9.21351C21.2722 9.07313 20.9642 9.00001 20.652 9H18.287ZM6.444 11H3.348L4.257 14H8.037L7.627 11H6.444ZM9.646 11L10.055 14H13.945L14.355 11H9.645H9.646ZM16.373 11L15.963 14H19.743L20.652 11H16.373ZM19.137 16H15.69L15.145 20H17.182C17.3966 20 17.6055 19.931 17.7778 19.8031C17.9501 19.6753 18.0768 19.4954 18.139 19.29L19.136 16H19.137ZM13.127 20L13.672 16H10.327L10.873 20H13.127ZM8.854 20L8.309 16H4.863L5.86 19.29C5.92223 19.4954 6.04886 19.6753 6.2212 19.8031C6.39353 19.931 6.60242 20 6.817 20H8.854Z" fill="white"/>
</svg>
