<svg width="24" height="24" viewBox="0 0 24 24" fill="none" xmlns="http://www.w3.org/2000/svg">
<path fill-rule="evenodd" clip-rule="evenodd" d="M8.04297 5.17585C8.62903 4.73164 9.29926 4.41117 10.013 4.23389C9.98023 3.95359 10.0072 3.66953 10.0921 3.40039C10.177 3.13125 10.3179 2.88312 10.5055 2.67231C10.6931 2.46151 10.9232 2.2928 11.1807 2.17727C11.4382 2.06174 11.7172 2.00201 11.9995 2.00201C12.2817 2.00201 12.5607 2.06174 12.8182 2.17727C13.0757 2.2928 13.3058 2.46151 13.4935 2.67231C13.6811 2.88312 13.822 3.13125 13.9069 3.40039C13.9917 3.66953 14.0187 3.95359 13.986 4.23389C14.7 4.41104 15.3706 4.73151 15.957 5.17585C16.933 5.92581 17.498 6.93076 17.832 7.93371C18.164 8.92866 18.284 9.96561 18.342 10.8386C18.366 11.1936 18.381 11.5345 18.393 11.8355L18.402 12.0385C18.417 12.3985 18.433 12.6685 18.46 12.8665C18.655 14.3284 18.898 15.3533 19.244 16.1733C19.582 16.9743 20.034 17.6192 20.707 18.2922C20.8468 18.432 20.942 18.6102 20.9806 18.8041C21.0191 18.9981 20.9993 19.1991 20.9236 19.3818C20.848 19.5645 20.7198 19.7207 20.5554 19.8305C20.391 19.9404 20.1977 19.9991 20 19.9991H13.732C13.9073 20.3032 13.9996 20.648 13.9995 20.999C13.9994 21.3499 13.9069 21.6947 13.7313 21.9986C13.5557 22.3026 13.3033 22.5549 12.9993 22.7304C12.6953 22.9058 12.3505 22.9982 11.9995 22.9982C11.6485 22.9982 11.3037 22.9058 10.9997 22.7304C10.6957 22.5549 10.4432 22.3026 10.2676 21.9986C10.0921 21.6947 9.99959 21.3499 9.99947 20.999C9.99935 20.648 10.0916 20.3032 10.267 19.9991H3.99997C3.80222 19.9991 3.60892 19.9404 3.44451 19.8305C3.2801 19.7207 3.15196 19.5645 3.07629 19.3818C3.00062 19.1991 2.98082 18.9981 3.01939 18.8041C3.05795 18.6102 3.15316 18.432 3.29297 18.2922C3.96697 17.6182 4.41897 16.9783 4.75597 16.1803C5.09997 15.3633 5.34297 14.3384 5.53997 12.8665C5.56697 12.6675 5.58297 12.3985 5.59797 12.0375L5.60697 11.8355C5.61897 11.5355 5.63397 11.1936 5.65697 10.8386C5.71597 9.96561 5.83597 8.92866 6.16697 7.93371C6.50197 6.93076 7.06697 5.92481 8.04297 5.17585V5.17585ZM6.06897 17.9992C6.26597 17.6732 6.44097 17.3293 6.59797 16.9583C7.04297 15.9053 7.31597 14.6794 7.52297 13.1325C7.56154 12.798 7.58589 12.462 7.59597 12.1255L7.60597 11.9095C7.61797 11.6095 7.63097 11.2995 7.65297 10.9726C7.70697 10.1586 7.81297 9.32064 8.06497 8.56568C8.31497 7.81872 8.69097 7.19975 9.26097 6.76177C9.82497 6.32879 10.672 5.99981 12 5.99981C13.328 5.99981 14.175 6.32879 14.739 6.76177C15.309 7.19975 15.686 7.81872 15.935 8.56568C16.187 9.32064 16.293 10.1586 16.347 10.9726C16.369 11.2995 16.382 11.6095 16.394 11.9085L16.404 12.1245C16.419 12.4745 16.437 12.8315 16.477 13.1325C16.683 14.6704 16.956 15.8953 17.401 16.9503C17.558 17.3233 17.735 17.6702 17.933 17.9992H6.06997H6.06897Z" fill="#808080"/>
</svg>
