<svg width="52" height="47" viewBox="0 0 52 47" fill="none" xmlns="http://www.w3.org/2000/svg">
<ellipse cx="25.8537" cy="23.5" rx="25.8537" ry="23.5" fill="#FF9EB3"/>
<path fill-rule="evenodd" clip-rule="evenodd" d="M32.6536 16.2955C32.7036 16.3829 32.7911 16.4453 32.9036 16.4453C35.9036 16.4453 38.3536 18.8926 38.3536 21.8893V29.306C38.3536 32.3027 35.9036 34.75 32.9036 34.75H18.8036C15.7911 34.75 13.3536 32.3027 13.3536 29.306V21.8893C13.3536 18.8926 15.7911 16.4453 18.8036 16.4453C18.9036 16.4453 19.0036 16.3954 19.0411 16.2955L19.1161 16.1457C19.1592 16.055 19.2035 15.9618 19.2483 15.8673C19.5681 15.1937 19.9219 14.4485 20.1411 14.0105C20.7161 12.8868 21.6911 12.2625 22.9036 12.25H28.7911C30.0036 12.2625 30.9911 12.8868 31.5661 14.0105C31.763 14.4039 32.063 15.0374 32.3521 15.6481C32.4117 15.7741 32.4709 15.8991 32.5286 16.0208L32.6536 16.2955ZM31.7411 21.0902C31.7411 21.7145 32.2411 22.2139 32.8661 22.2139C33.4911 22.2139 34.0036 21.7145 34.0036 21.0902C34.0036 20.4659 33.4911 19.9539 32.8661 19.9539C32.2411 19.9539 31.7411 20.4659 31.7411 21.0902ZM23.6911 23.0255C24.2786 22.4387 25.0411 22.1265 25.8536 22.1265C26.6661 22.1265 27.4286 22.4387 28.0036 23.013C28.5786 23.5874 28.8911 24.3491 28.8911 25.1607C28.8786 26.8338 27.5286 28.1948 25.8536 28.1948C25.0411 28.1948 24.2786 27.8826 23.7036 27.3083C23.1286 26.7339 22.8161 25.9723 22.8161 25.1607V25.1482C22.8036 24.3615 23.1161 23.5999 23.6911 23.0255ZM29.3161 28.6318C28.4286 29.5183 27.2036 30.0677 25.8536 30.0677C24.5411 30.0677 23.3161 29.5558 22.3786 28.6318C21.4536 27.6953 20.9411 26.4717 20.9411 25.1607C20.9286 23.8621 21.4411 22.6385 22.3661 21.702C23.3036 20.7655 24.5411 20.2536 25.8536 20.2536C27.1661 20.2536 28.4036 20.7655 29.3286 21.6895C30.2536 22.626 30.7661 23.8621 30.7661 25.1607C30.7536 26.5216 30.2036 27.7453 29.3161 28.6318Z" fill="white"/>
</svg>
