<svg width="24" height="24" viewBox="0 0 24 24" fill="none" xmlns="http://www.w3.org/2000/svg">
<path d="M20.25 3.75045V21.0005C20.25 21.1994 20.171 21.3901 20.0303 21.5308C19.8897 21.6714 19.6989 21.7505 19.5 21.7505C19.3011 21.7505 19.1103 21.6714 18.9697 21.5308C18.829 21.3901 18.75 21.1994 18.75 21.0005V16.5005H14.25C14.0511 16.5005 13.8603 16.4214 13.7197 16.2808C13.579 16.1401 13.5 15.9494 13.5 15.7505C13.5348 13.9539 13.7617 12.1662 14.1769 10.418C15.0938 6.62201 16.8319 4.07764 19.2047 3.06139C19.3187 3.01253 19.4431 2.99274 19.5667 3.00377C19.6903 3.01481 19.8092 3.05633 19.9128 3.12461C20.0164 3.1929 20.1014 3.28581 20.1603 3.39504C20.2191 3.50426 20.2499 3.62638 20.25 3.75045ZM11.2397 3.62764C11.225 3.52916 11.1908 3.43459 11.1392 3.34944C11.0876 3.2643 11.0195 3.19029 10.939 3.13173C10.8585 3.07316 10.7671 3.03122 10.6702 3.00834C10.5733 2.98547 10.4728 2.98212 10.3746 2.99849C10.2764 3.01485 10.1824 3.05062 10.0982 3.10369C10.0139 3.15675 9.94107 3.22607 9.88389 3.30758C9.82671 3.3891 9.78634 3.48118 9.76512 3.57846C9.7439 3.67575 9.74227 3.77628 9.76031 3.8742L10.4897 8.25045H8.25V3.75045C8.25 3.55154 8.17098 3.36077 8.03033 3.22012C7.88968 3.07947 7.69891 3.00045 7.5 3.00045C7.30109 3.00045 7.11032 3.07947 6.96967 3.22012C6.82902 3.36077 6.75 3.55154 6.75 3.75045V8.25045H4.51031L5.23969 3.8742C5.25773 3.77628 5.2561 3.67575 5.23488 3.57846C5.21366 3.48118 5.17329 3.3891 5.11611 3.30758C5.05893 3.22607 4.98609 3.15675 4.90184 3.10369C4.81759 3.05062 4.72362 3.01485 4.62541 2.99849C4.52719 2.98212 4.4267 2.98547 4.32979 3.00834C4.23289 3.03122 4.14151 3.07316 4.06098 3.13173C3.98045 3.19029 3.9124 3.2643 3.86077 3.34944C3.80915 3.43459 3.775 3.52916 3.76031 3.62764L3.01031 8.12764C3.00358 8.16823 3.00013 8.2093 3 8.25045C3.0015 9.3134 3.37867 10.3416 4.06488 11.1534C4.75108 11.9652 5.70214 12.5083 6.75 12.6867V21.0005C6.75 21.1994 6.82902 21.3901 6.96967 21.5308C7.11032 21.6714 7.30109 21.7505 7.5 21.7505C7.69891 21.7505 7.88968 21.6714 8.03033 21.5308C8.17098 21.3901 8.25 21.1994 8.25 21.0005V12.6867C9.29786 12.5083 10.2489 11.9652 10.9351 11.1534C11.6213 10.3416 11.9985 9.3134 12 8.25045C11.9999 8.2093 11.9964 8.16823 11.9897 8.12764L11.2397 3.62764Z" fill="black"/>
</svg>
