<svg width="25" height="24" viewBox="0 0 25 24" fill="none" xmlns="http://www.w3.org/2000/svg">
<path d="M20.75 3.75045V21.0005C20.75 21.1994 20.671 21.3901 20.5303 21.5308C20.3897 21.6714 20.1989 21.7505 20 21.7505C19.8011 21.7505 19.6103 21.6714 19.4697 21.5308C19.329 21.3901 19.25 21.1994 19.25 21.0005V16.5005H14.75C14.5511 16.5005 14.3603 16.4214 14.2197 16.2808C14.079 16.1401 14 15.9494 14 15.7505C14.0348 13.9539 14.2617 12.1662 14.6769 10.418C15.5938 6.62201 17.3319 4.07764 19.7047 3.06139C19.8187 3.01253 19.9431 2.99274 20.0667 3.00377C20.1903 3.01481 20.3092 3.05633 20.4128 3.12461C20.5164 3.1929 20.6014 3.28581 20.6603 3.39504C20.7191 3.50426 20.7499 3.62638 20.75 3.75045ZM11.7397 3.62764C11.725 3.52916 11.6908 3.43459 11.6392 3.34944C11.5876 3.2643 11.5195 3.19029 11.439 3.13173C11.3585 3.07316 11.2671 3.03122 11.1702 3.00834C11.0733 2.98547 10.9728 2.98212 10.8746 2.99849C10.7764 3.01485 10.6824 3.05062 10.5982 3.10369C10.5139 3.15675 10.4411 3.22607 10.3839 3.30758C10.3267 3.3891 10.2863 3.48118 10.2651 3.57846C10.2439 3.67575 10.2423 3.77628 10.2603 3.8742L10.9897 8.25045H8.75V3.75045C8.75 3.55154 8.67098 3.36077 8.53033 3.22012C8.38968 3.07947 8.19891 3.00045 8 3.00045C7.80109 3.00045 7.61032 3.07947 7.46967 3.22012C7.32902 3.36077 7.25 3.55154 7.25 3.75045V8.25045H5.01031L5.73969 3.8742C5.75773 3.77628 5.7561 3.67575 5.73488 3.57846C5.71366 3.48118 5.67329 3.3891 5.61611 3.30758C5.55893 3.22607 5.48609 3.15675 5.40184 3.10369C5.31759 3.05062 5.22362 3.01485 5.12541 2.99849C5.02719 2.98212 4.9267 2.98547 4.82979 3.00834C4.73289 3.03122 4.64151 3.07316 4.56098 3.13173C4.48045 3.19029 4.4124 3.2643 4.36077 3.34944C4.30915 3.43459 4.275 3.52916 4.26031 3.62764L3.51031 8.12764C3.50358 8.16823 3.50013 8.2093 3.5 8.25045C3.5015 9.3134 3.87867 10.3416 4.56488 11.1534C5.25108 11.9652 6.20214 12.5083 7.25 12.6867V21.0005C7.25 21.1994 7.32902 21.3901 7.46967 21.5308C7.61032 21.6714 7.80109 21.7505 8 21.7505C8.19891 21.7505 8.38968 21.6714 8.53033 21.5308C8.67098 21.3901 8.75 21.1994 8.75 21.0005V12.6867C9.79786 12.5083 10.7489 11.9652 11.4351 11.1534C12.1213 10.3416 12.4985 9.3134 12.5 8.25045C12.4999 8.2093 12.4964 8.16823 12.4897 8.12764L11.7397 3.62764Z" fill="#B3B3B3"/>
</svg>
