<svg width="25" height="24" viewBox="0 0 25 24" fill="none" xmlns="http://www.w3.org/2000/svg">
<path d="M12.5 7.12499C11.5358 7.12499 10.5933 7.41091 9.7916 7.94658C8.98991 8.48225 8.36507 9.24362 7.99609 10.1344C7.62712 11.0252 7.53058 12.0054 7.71868 12.9511C7.90678 13.8967 8.37108 14.7654 9.05286 15.4471C9.73464 16.1289 10.6033 16.5932 11.5489 16.7813C12.4946 16.9694 13.4748 16.8729 14.3656 16.5039C15.2564 16.1349 16.0177 15.5101 16.5534 14.7084C17.0891 13.9067 17.375 12.9642 17.375 12C17.3735 10.7075 16.8594 9.46841 15.9455 8.55449C15.0316 7.64057 13.7925 7.12648 12.5 7.12499ZM12.5 14.625C11.9808 14.625 11.4733 14.471 11.0416 14.1826C10.61 13.8942 10.2735 13.4842 10.0748 13.0045C9.87614 12.5249 9.82416 11.9971 9.92545 11.4879C10.0267 10.9787 10.2767 10.5109 10.6439 10.1438C11.011 9.77672 11.4787 9.52672 11.9879 9.42543C12.4971 9.32414 13.0249 9.37613 13.5046 9.57481C13.9842 9.77349 14.3942 10.1099 14.6826 10.5416C14.9711 10.9733 15.125 11.4808 15.125 12C15.125 12.6962 14.8484 13.3639 14.3562 13.8561C13.8639 14.3484 13.1962 14.625 12.5 14.625ZM23.1744 9.9778C23.1427 9.81934 23.0772 9.66958 22.9824 9.5387C22.8876 9.40783 22.7657 9.29891 22.625 9.21937L20.0197 7.73343L20.0094 4.79812C20.0088 4.63526 19.9729 4.47446 19.9041 4.32684C19.8353 4.17922 19.7353 4.0483 19.6109 3.94312C18.561 3.05481 17.3522 2.37371 16.0484 1.93593C15.8997 1.88576 15.7422 1.86727 15.5859 1.88164C15.4296 1.89601 15.278 1.94292 15.1409 2.01937L12.5 3.49405L9.85907 2.01843C9.72182 1.94157 9.56997 1.89434 9.41333 1.87981C9.25669 1.86528 9.09875 1.88376 8.94969 1.93405C7.64559 2.37366 6.43672 3.05667 5.38719 3.94687C5.26326 4.05193 5.16356 4.18259 5.09494 4.32986C5.02632 4.47713 4.99042 4.63752 4.98969 4.79999L4.97657 7.73812L2.37501 9.2203C2.2343 9.30015 2.11246 9.4094 2.01782 9.54061C1.92317 9.67182 1.85794 9.8219 1.82657 9.98062C1.56172 11.3148 1.56172 12.688 1.82657 14.0222C1.85819 14.1806 1.92354 14.3303 2.01817 14.4611C2.11281 14.592 2.23451 14.701 2.37501 14.7806L4.98313 16.2666L4.99344 19.2019C4.99401 19.3647 5.02993 19.5255 5.09872 19.6731C5.16752 19.8208 5.26754 19.9517 5.39188 20.0569C6.44178 20.9452 7.65065 21.6263 8.95438 22.0641C9.1031 22.1142 9.26067 22.1327 9.41696 22.1183C9.57325 22.104 9.7248 22.0571 9.86188 21.9806L12.5 20.5059L15.1381 21.9816C15.2754 22.0584 15.4272 22.1056 15.5839 22.1202C15.7405 22.1347 15.8985 22.1162 16.0475 22.0659C17.3516 21.6263 18.5605 20.9433 19.61 20.0531C19.7339 19.9481 19.8336 19.8174 19.9023 19.6701C19.9709 19.5229 20.0068 19.3625 20.0075 19.2L20.0206 16.2619L22.6278 14.7797C22.7685 14.6998 22.8904 14.5906 22.985 14.4594C23.0797 14.3282 23.1449 14.1781 23.1763 14.0194C23.4405 12.6851 23.4399 11.3119 23.1744 9.9778ZM21.0528 13.0884L18.5328 14.5209C18.3538 14.6224 18.2062 14.7713 18.1063 14.9512C18.0556 15.045 18.0022 15.1322 17.9469 15.2212C17.8358 15.3986 17.7764 15.6035 17.7753 15.8128L17.7622 18.6562C17.1557 19.1126 16.4915 19.4868 15.7869 19.7691L13.2416 18.345C13.0737 18.251 12.8846 18.2016 12.6922 18.2016H12.665C12.5581 18.2016 12.4494 18.2016 12.3425 18.2016C12.1415 18.1968 11.9428 18.2457 11.7669 18.3431L9.21876 19.7644C8.51297 19.4835 7.84724 19.1109 7.23876 18.6562L7.22844 15.8212C7.22758 15.6116 7.16815 15.4064 7.05688 15.2287C7.00251 15.1406 6.94813 15.0497 6.89751 14.9587C6.7975 14.7799 6.65026 14.632 6.47188 14.5312L3.95001 13.0903C3.85204 12.3674 3.85204 11.6345 3.95001 10.9116L6.47001 9.47905C6.64875 9.37758 6.79627 9.22908 6.89657 9.04968C6.94719 8.95593 7.00063 8.8678 7.05594 8.77874C7.16705 8.60135 7.22646 8.39649 7.22751 8.18718L7.23782 5.34374C7.84453 4.88866 8.50872 4.51574 9.21313 4.23468L11.7584 5.65874C11.9343 5.75738 12.1335 5.80662 12.335 5.80124C12.4419 5.80124 12.5506 5.80124 12.6575 5.80124C12.8585 5.806 13.0572 5.75714 13.2331 5.65968L15.7813 4.23562C16.487 4.51645 17.1528 4.88903 17.7613 5.34374L17.7716 8.17874C17.7724 8.38837 17.8319 8.59358 17.9431 8.77124C17.9975 8.85937 18.0519 8.9503 18.1025 9.04124C18.2025 9.22007 18.3498 9.36795 18.5281 9.46874L21.05 10.9059C21.1493 11.63 21.1502 12.3641 21.0528 13.0884Z" fill="#B3B3B3"/>
</svg>
