<?xml version="1.0" standalone="no"?>
<!DOCTYPE svg PUBLIC "-//W3C//DTD SVG 20010904//EN"
 "http://www.w3.org/TR/2001/REC-SVG-20010904/DTD/svg10.dtd">
<svg version="1.0" xmlns="http://www.w3.org/2000/svg"
 width="256.000000pt" height="256.000000pt" viewBox="0 0 256.000000 256.000000"
 preserveAspectRatio="xMidYMid meet">

<g transform="translate(0.000000,256.000000) scale(0.100000,-0.100000)"
fill="#ff9eb3" stroke="none">
<path d="M1108 2305 c-137 -23 -304 -91 -418 -168 -68 -47 -207 -184 -255
-252 -226 -318 -256 -725 -79 -1077 l43 -88 -79 0 -80 0 0 -80 0 -80 240 0
240 0 0 240 0 240 -80 0 -80 0 0 -132 -1 -133 -34 55 c-85 132 -131 323 -122
495 23 390 280 704 661 807 66 18 107 22 221 22 159 -1 240 -18 369 -78 l75
-34 39 66 40 67 -47 27 c-66 38 -242 95 -334 107 -101 14 -222 12 -319 -4z"/>
<path d="M1840 1760 l0 -240 80 0 80 0 0 133 1 132 34 -55 c99 -155 145 -389
114 -580 -57 -356 -310 -632 -665 -726 -51 -13 -105 -18 -204 -18 -155 0 -248
20 -374 78 l-75 34 -27 -46 c-15 -26 -33 -57 -41 -68 -13 -20 -10 -23 59 -57
288 -139 621 -140 907 -2 118 57 207 122 302 222 126 133 208 280 256 461 22
82 26 120 27 242 1 196 -26 316 -108 475 -22 44 -42 83 -44 88 -2 4 33 7 77 7
l81 0 0 80 0 80 -240 0 -240 0 0 -240z"/>
</g>
</svg>
