<svg width="23" height="22" viewBox="0 0 23 22" fill="none" xmlns="http://www.w3.org/2000/svg">
<path fill-rule="evenodd" clip-rule="evenodd" d="M10.8096 1.02618C10.9956 0.848896 11.2427 0.75 11.4996 0.75C11.7566 0.75 12.0037 0.848896 12.1896 1.02618L20.1896 8.6448L22.6896 11.0247C22.8819 11.2077 22.9936 11.4595 23.0002 11.7249C23.0068 11.9902 22.9076 12.2473 22.7246 12.4396C22.5417 12.6319 22.2898 12.7436 22.0244 12.7502C21.759 12.7567 21.5019 12.6576 21.3096 12.4746L20.4996 11.7016V19.2493C20.4996 19.7797 20.2889 20.2884 19.9139 20.6634C19.5388 21.0385 19.0301 21.2492 18.4996 21.2492H4.49965C3.96922 21.2492 3.46051 21.0385 3.08544 20.6634C2.71036 20.2884 2.49965 19.7797 2.49965 19.2493V11.7016L1.68965 12.4736C1.49763 12.6566 1.24078 12.7558 0.975608 12.7494C0.710432 12.7431 0.458649 12.6316 0.27565 12.4396C0.0926507 12.2476 -0.00657517 11.9908 -0.000198931 11.7256C0.00617731 11.4604 0.117633 11.2087 0.30965 11.0257L2.80965 8.6448L10.8096 1.02618ZM4.49965 9.79774V19.2493H8.49965V14.2495C8.49965 13.4539 8.81572 12.6909 9.37833 12.1283C9.94094 11.5657 10.704 11.2497 11.4996 11.2497C12.2953 11.2497 13.0584 11.5657 13.621 12.1283C14.1836 12.6909 14.4996 13.4539 14.4996 14.2495V19.2493H18.4996V9.79774L11.4996 3.13007L4.49965 9.79774ZM12.4996 19.2493V14.2495C12.4996 13.9843 12.3943 13.73 12.2068 13.5424C12.0192 13.3549 11.7649 13.2496 11.4996 13.2496C11.2344 13.2496 10.9801 13.3549 10.7925 13.5424C10.605 13.73 10.4996 13.9843 10.4996 14.2495V19.2493H12.4996Z" fill="black"/>
</svg>
