<svg width="16" height="16" viewBox="0 0 16 16" fill="none" xmlns="http://www.w3.org/2000/svg">
<g clip-path="url(#clip0_614_665)">
<path d="M11.6 0.660156C10.208 0.660156 8.872 1.30816 8 2.33216C7.128 1.30816 5.792 0.660156 4.4 0.660156C1.936 0.660156 0 2.59616 0 5.06016C0 8.08416 2.72 10.5482 6.84 14.2921L8 15.3401L9.16 14.2841C13.28 10.5482 16 8.08416 16 5.06016C16 2.59616 14.064 0.660156 11.6 0.660156ZM8.08 13.1001L8 13.1801L7.92 13.1001C4.112 9.65216 1.6 7.37216 1.6 5.06016C1.6 3.46016 2.8 2.26016 4.4 2.26016C5.632 2.26016 6.832 3.05216 7.256 4.14816H8.752C9.168 3.05216 10.368 2.26016 11.6 2.26016C13.2 2.26016 14.4 3.46016 14.4 5.06016C14.4 7.37216 11.888 9.65216 8.08 13.1001Z" fill="#F95258"/>
<path d="M8.0801 13.1007L8.0001 13.1807L7.9201 13.1007C4.1121 9.65274 1.6001 7.37274 1.6001 5.06074C1.6001 3.46074 2.8001 2.26074 4.4001 2.26074C5.6321 2.26074 6.8321 3.05274 7.2561 4.14874H8.7521C9.1681 3.05274 10.3681 2.26074 11.6001 2.26074C13.2001 2.26074 14.4001 3.46074 14.4001 5.06074C14.4001 7.37274 11.8881 9.65274 8.0801 13.1007Z" fill="#F95258"/>
</g>
<defs>
<clipPath id="clip0_614_665">
<rect width="16" height="16" fill="white"/>
</clipPath>
</defs>
</svg>
