<svg width="15" height="15" viewBox="0 0 15 15" fill="none" xmlns="http://www.w3.org/2000/svg">
<path d="M10.875 0.619141C9.57 0.619141 8.3175 1.22664 7.5 2.18664C6.6825 1.22664 5.43 0.619141 4.125 0.619141C1.815 0.619141 0 2.43414 0 4.74414C0 7.57914 2.55 9.88914 6.4125 13.3991L7.5 14.3816L8.5875 13.3916C12.45 9.88914 15 7.57914 15 4.74414C15 2.43414 13.185 0.619141 10.875 0.619141ZM7.575 12.2816L7.5 12.3566L7.425 12.2816C3.855 9.04914 1.5 6.91164 1.5 4.74414C1.5 3.24414 2.625 2.11914 4.125 2.11914C5.28 2.11914 6.405 2.86164 6.8025 3.88914H8.205C8.595 2.86164 9.72 2.11914 10.875 2.11914C12.375 2.11914 13.5 3.24414 13.5 4.74414C13.5 6.91164 11.145 9.04914 7.575 12.2816Z" fill="#F95258"/>
<path d="M7.575 12.2816L7.5 12.3566L7.425 12.2816C3.855 9.04914 1.5 6.91164 1.5 4.74414C1.5 3.24414 2.625 2.11914 4.125 2.11914C5.28 2.11914 6.405 2.86164 6.8025 3.88914H8.205C8.595 2.86164 9.72 2.11914 10.875 2.11914C12.375 2.11914 13.5 3.24414 13.5 4.74414C13.5 6.91164 11.145 9.04914 7.575 12.2816Z" fill="#F95258"/>
</svg>
