<svg width="24" height="24" viewBox="0 0 24 24" fill="white" xmlns="http://www.w3.org/2000/svg">
<path fill-rule="evenodd" clip-rule="evenodd" d="M15.879 3.707C16.4415 3.14459 17.2045 2.82864 18 2.82864C18.7955 2.82864 19.5584 3.14459 20.121 3.707L20.293 3.879C20.8554 4.44159 21.1713 5.20451 21.1713 6C21.1713 6.7955 20.8554 7.55842 20.293 8.121L18.556 9.86L8.70696 19.708C8.57896 19.8361 8.41859 19.927 8.24297 19.971L4.24296 20.971C4.07538 21.013 3.89978 21.0108 3.73328 20.9647C3.56678 20.9187 3.41505 20.8302 3.29289 20.7081C3.17073 20.5859 3.0823 20.4342 3.03623 20.2677C2.99015 20.1012 2.98799 19.9256 3.02996 19.758L4.02997 15.758C4.07401 15.5824 4.16491 15.422 4.29297 15.294L14.199 5.388L15.879 3.708V3.707ZM18.707 5.121C18.5194 4.93353 18.2651 4.82822 18 4.82822C17.7348 4.82822 17.4805 4.93353 17.293 5.121L16.307 6.107L17.862 7.724L18.879 6.707C19.0664 6.51948 19.1718 6.26517 19.1718 6C19.1718 5.73484 19.0664 5.48053 18.879 5.293L18.707 5.121ZM16.447 9.138L14.892 7.522L5.90296 16.512L5.37397 18.626L7.48897 18.097L16.448 9.138H16.447Z" fill="white"/>
</svg>
